HIERARCHY
ROOT Hips
{
	OFFSET 0.000000 0.938569 0.000000
	CHANNELS 6 Xposition Yposition Zposition Zrotation Yrotation Xrotation 
	JOINT LeftUpLeg
	{
		OFFSET 0.053367 -0.122087 0.014267
		CHANNELS 3 Zrotation Yrotation Xrotation
		JOINT LeftLeg
		{
			OFFSET 0.016213 -0.365522 0.081311
			CHANNELS 3 Zrotation Yrotation Xrotation
			JOINT LeftFoot
			{
				OFFSET -0.025136 -0.410005 -0.146673
				CHANNELS 3 Zrotation Yrotation Xrotation
				End Site #name: LeftToeBase
				{
					OFFSET 0.027111 -0.033578 0.136312
				}
			}
		}
	}
	JOINT rightUpLeg
	{
		OFFSET -0.064680 -0.125391 -0.021063
		CHANNELS 3 Zrotation Yrotation Xrotation
		JOINT RightLeg
		{
			OFFSET -0.099945 -0.343287 0.069136
			CHANNELS 3 Zrotation Yrotation Xrotation
			JOINT RightFoot
			{
				OFFSET 0.038341 -0.391261 -0.186219
				CHANNELS 3 Zrotation Yrotation Xrotation
				End Site #name: RightToeBase
				{
					OFFSET -0.063473 -0.055539 0.119840
				}
			}
		}
	}
	JOINT Spine
	{
		OFFSET 0.019726 0.081755 -0.031349
		CHANNELS 3 Zrotation Yrotation Xrotation
		JOINT Spine1
		{
			OFFSET -0.008768 0.159287 0.019172
			CHANNELS 3 Zrotation Yrotation Xrotation
			JOINT Spine2
			{
				OFFSET -0.005533 0.058687 0.029150
				CHANNELS 3 Zrotation Yrotation Xrotation
				JOINT Neck
				{
					OFFSET 0.004231 0.224909 -0.023856
					CHANNELS 3 Zrotation Yrotation Xrotation
					End Site #name: Head
					{
						OFFSET -0.013387 0.061361 0.043872
					}
				}
				JOINT LeftShoulder
				{
					OFFSET 0.073274 0.132606 -0.019193
					CHANNELS 3 Zrotation Yrotation Xrotation
					JOINT LeftArm
					{
						OFFSET 0.126443 -0.005637 0.031467
						CHANNELS 3 Zrotation Yrotation Xrotation
						JOINT LeftForeArm
						{
							OFFSET 0.067635 -0.262723 0.067898
							CHANNELS 3 Zrotation Yrotation Xrotation
							End Site #name: LeftHand
							{
								OFFSET -0.029297 -0.153529 0.209082
							}
						}
					}
				}
				JOINT RightShoulder
				{
					OFFSET -0.070954 0.142461 -0.034048
					CHANNELS 3 Zrotation Yrotation Xrotation
					JOINT RightArm
					{
						OFFSET -0.120642 -0.012286 0.005435
						CHANNELS 3 Zrotation Yrotation Xrotation
						JOINT RightForeArm
						{
							OFFSET -0.046387 -0.275655 0.062240
							CHANNELS 3 Zrotation Yrotation Xrotation
							End Site #name: RightHand
							{
								OFFSET 0.006080 -0.085081 0.251848
							}
						}
					}
				}
			}
		}
	}
}
MOTION
Frames: 9
Frame Time: 0.041667
-0.138605 0.958139 0.155358 -2.320204 -0.401657 0.917947 3.890519 0.921507 6.634832 -2.403605 1.421830 -15.610959 -1.020119 0.950797 6.490774 -1.962318 0.802028 -4.359457 0.952479 -0.651945 -2.289431 1.696305 -2.604316 5.607236 -0.583288 0.018699 -0.856250 1.622580 -0.726490 1.020163 0.157070 -0.749551 0.882803 8.767727 -4.349502 16.129645 3.545001 5.691019 -0.458643 4.381126 3.536795 11.513490 10.651042 12.424261 5.306619 0.192263 -15.446114 1.574387 -3.467466 -2.333663 11.672982 -9.758127 -13.610348 29.454875 
-0.149222 0.956663 0.160301 -1.965131 -0.599988 1.297487 4.085464 0.956516 7.142962 -2.130301 1.398947 -16.533622 -1.211036 0.410394 6.618305 -1.139317 0.067507 -1.056300 -2.022638 -0.006272 -8.366273 2.280890 -1.769236 5.883921 -0.317205 -0.082212 -2.084988 1.704248 -0.730813 1.504689 -0.143035 -0.911827 0.667400 9.580415 -5.154650 15.691500 3.074408 5.801160 -0.355560 2.807352 3.492682 12.349539 10.519131 12.413702 4.920811 0.535085 -17.430409 1.741989 -2.788828 -2.417518 12.864648 -10.622867 -14.359715 31.207569 
-0.162573 0.954468 0.165326 -1.418349 -0.747753 1.778551 4.324389 0.994190 7.156401 -1.760060 1.334877 -16.789754 -1.299608 0.135839 6.640034 0.362186 -0.714290 2.683673 -4.540138 -0.010527 -15.690687 3.554943 0.095066 6.441823 -0.088001 -0.167663 -3.202794 1.746160 -0.725984 1.849241 -0.494431 -1.072723 0.497607 10.133896 -5.711810 15.229345 2.402741 6.093359 -0.201101 0.839578 3.533003 13.661692 10.631790 12.319593 5.502887 0.671385 -19.311054 1.914745 -1.714699 -2.513879 14.305272 -11.430213 -14.884744 33.226156 
-0.178238 0.953278 0.168978 -0.970853 -0.879828 2.232287 4.834687 1.074415 6.377818 -1.256487 1.189929 -15.797206 -1.316418 0.066491 6.618334 2.192921 -1.281644 5.567368 -6.154029 -0.417114 -22.033468 4.720450 1.405268 7.302762 0.438346 -0.246687 -3.804897 1.729712 -0.719851 1.818556 -0.849427 -1.216865 0.520950 10.146450 -5.766338 14.809385 1.630118 6.462529 -0.025648 -1.187215 3.626479 15.031065 11.114257 12.267925 7.119073 0.596751 -20.556024 2.050182 -0.787897 -2.633537 15.644346 -11.836027 -14.892347 34.983727 
-0.194321 0.953957 0.170101 -0.721559 -0.980671 2.452992 5.352513 1.168155 4.490126 -0.557611 0.889740 -12.814578 -1.219085 0.380452 6.612706 3.777118 -1.566943 7.187983 -7.159319 -0.769635 -26.083958 5.597063 2.066288 8.221896 1.190411 -0.304619 -3.641473 1.644644 -0.699484 1.515226 -1.034272 -1.313658 0.744066 9.894100 -5.592711 14.291378 0.987414 6.616634 0.108229 -3.069161 3.739667 16.238289 11.855906 12.300302 9.269502 0.392942 -21.011045 2.125569 -0.249371 -2.731252 16.537206 -11.702577 -14.359242 36.120381 
-0.208555 0.955528 0.169173 -0.511632 -0.997841 2.421831 5.532001 1.219307 1.515606 0.202790 0.409625 -7.789742 -1.027376 1.045658 6.676246 4.821967 -1.701481 8.018392 -7.670701 -0.988523 -28.237024 6.239146 2.631507 8.810677 1.871872 -0.334260 -2.847350 1.510616 -0.665144 1.078972 -0.993712 -1.327957 1.072976 9.517844 -5.315564 13.744143 0.490535 6.641172 0.205781 -4.508223 3.843427 17.126223 12.427658 12.155877 11.302904 0.133178 -20.781053 2.138488 -0.087649 -2.793594 17.001160 -11.190808 -13.512666 36.669313 
-0.219670 0.957056 0.167692 -0.209438 -0.924414 2.231568 5.338486 1.195610 -2.118007 0.719223 -0.150933 -1.563644 -0.781863 1.926081 6.814662 5.347020 -1.806073 8.528111 -7.788815 -1.147458 -29.420122 6.627733 3.038792 9.105383 2.335897 -0.341223 -1.761392 1.355372 -0.615764 0.711809 -0.810163 -1.258661 1.387029 9.115028 -4.997806 13.393109 0.133867 6.701551 0.277671 -5.405624 3.927277 17.705644 12.682226 11.830713 12.857955 -0.160709 -20.017901 2.097375 -0.274452 -2.830458 17.151563 -10.552614 -12.610261 36.865142 
-0.227476 0.958206 0.167209 0.211974 -0.784429 1.997828 4.865269 1.082172 -5.717384 0.784998 -0.573665 4.181307 -0.496219 2.772955 6.689378 5.406864 -1.927755 8.911589 -7.696868 -1.266454 -30.082575 6.784643 3.200839 9.225748 2.530444 -0.328810 -0.754239 1.156885 -0.524976 0.600263 -0.529215 -1.121287 1.560697 8.823346 -4.748974 13.313871 -0.083213 6.892674 0.328243 -5.698230 4.009183 18.071494 12.657930 11.427337 13.827040 -0.418063 -18.934814 2.012506 -0.755272 -2.844856 17.031621 -10.050461 -11.946164 36.858499 
-0.232664 0.958831 0.168658 0.673746 -0.618432 1.827193 4.363211 0.931837 -8.439793 0.463259 -0.679969 7.608039 -0.286232 3.229851 6.300485 5.191681 -2.026684 9.131405 -7.541937 -1.330282 -30.315105 6.802012 3.271157 9.193449 2.536522 -0.305506 -0.016490 0.897942 -0.391249 0.642840 -0.199937 -0.959172 1.613023 8.585177 -4.521572 13.446375 -0.163468 7.223912 0.358429 -5.509396 4.110863 18.359815 12.468804 11.051792 14.266770 -0.616185 -17.890392 1.920532 -1.313020 -2.834247 16.701077 -9.751603 -11.581142 36.734978 
